<?xml version="1.0" encoding="UTF-8" standalone="no"?>
<!DOCTYPE svg PUBLIC "-//W3C//DTD SVG 1.1//EN" "http://www.w3.org/Graphics/SVG/1.1/DTD/svg11.dtd">
<svg width="100%" height="100%" viewBox="0 0 675 675" version="1.1" xmlns="http://www.w3.org/2000/svg" xmlns:xlink="http://www.w3.org/1999/xlink" xml:space="preserve" xmlns:serif="http://www.serif.com/" style="fill-rule:evenodd;clip-rule:evenodd;stroke-linejoin:round;stroke-miterlimit:2;">
    <g>
        <g transform="matrix(1,0,0,1.00596,0,0)">
            <rect x="0" y="0" width="675" height="671" style="fill:rgb(38,144,178);"/>
        </g>
        <g transform="matrix(2.50978,0,0,2.50978,-211.095,-479.88)">
            <path d="M231.065,404.607C226.971,404.986 222.804,405.181 218.583,405.181C156.868,405.181 106.763,363.55 106.763,312.273C106.763,260.996 156.868,219.365 218.583,219.365C280.298,219.365 330.403,260.996 330.403,312.273C330.403,350.454 302.623,383.287 262.95,397.569C262.801,404.43 265.246,417.915 269.337,431.99C261.572,430.587 240.044,412.424 231.065,404.607Z" style="fill:rgb(224,224,224);"/>
            <circle cx="240.532" cy="309.236" r="10.174" style="fill:rgb(38,144,178);"/>
            <g transform="matrix(1,0,0,1,-43.8689,0)">
                <circle cx="240.532" cy="309.236" r="10.174" style="fill:rgb(38,144,178);"/>
            </g>
            <g transform="matrix(1,0,0,1,-88.0022,0)">
                <circle cx="240.532" cy="309.236" r="10.174" style="fill:rgb(75,189,0);"/>
            </g>
        </g>
    </g>
</svg>
